<?xml version="1.0" encoding="UTF-8"?>
<svg id="Layer_2" xmlns="http://www.w3.org/2000/svg" viewBox="0 -150 1250 800.38"
height="300" width="500">
<defs>
    <style>.cls-1,.cls-2{fill:none;}.cls-3{letter-spacing:-.01em;}.cls-4{fill:#8dd3c7;}.cls-5{fill:#bebad9;}.cls-6{letter-spacing:.01em;}.cls-2{stroke:#000;stroke-miterlimit:10;}.cls-7{letter-spacing:0em;}.cls-8{font-family:SourceSerifVariable-Roman, 'Source Serif Variable';font-size:40px;font-variation-settings:'wght' 389;}.cls-9{letter-spacing:-.07em;}</style>
</defs>
<g id="Layer_1-2"><g>
    <circle class="cls-4" cx="617.5" cy="192.5" r="15"/>
    <path d="M617.5,178c8,0,14.5,6.5,14.5,14.5s-6.5,14.5-14.5,14.5-14.5-6.5-14.5-14.5,6.5-14.5,14.5-14.5m0-1c-8.56,0-15.5,6.94-15.5,15.5s6.94,15.5,15.5,15.5,15.5-6.94,15.5-15.5-6.94-15.5-15.5-15.5h0Z"/>
</g>
<g><circle class="cls-4" cx="541.5" cy="192.5" r="15"/><path d="M541.5,178c8,0,14.5,6.5,14.5,14.5s-6.5,14.5-14.5,14.5-14.5-6.5-14.5-14.5,6.5-14.5,14.5-14.5m0-1c-8.56,0-15.5,6.94-15.5,15.5s6.94,15.5,15.5,15.5,15.5-6.94,15.5-15.5-6.94-15.5-15.5-15.5h0Z"/></g><g><circle class="cls-4" cx="541.5" cy="256.5" r="15"/><path d="M541.5,242c8,0,14.5,6.5,14.5,14.5s-6.5,14.5-14.5,14.5-14.5-6.5-14.5-14.5,6.5-14.5,14.5-14.5m0-1c-8.56,0-15.5,6.94-15.5,15.5s6.94,15.5,15.5,15.5,15.5-6.94,15.5-15.5-6.94-15.5-15.5-15.5h0Z"/></g><g><circle class="cls-4" cx="617.5" cy="256.5" r="15"/><path d="M617.5,242c8,0,14.5,6.5,14.5,14.5s-6.5,14.5-14.5,14.5-14.5-6.5-14.5-14.5,6.5-14.5,14.5-14.5m0-1c-8.56,0-15.5,6.94-15.5,15.5s6.94,15.5,15.5,15.5,15.5-6.94,15.5-15.5-6.94-15.5-15.5-15.5h0Z"/></g><line class="cls-2" x1="541.5" y1="207.5" x2="541.5" y2="240.5"/><line class="cls-2" x1="648.5" y1="332.5" x2="648.5" y2="333.5"/><line class="cls-2" x1="557.5" y1="256.5" x2="601.5" y2="256.5"/><line class="cls-2" x1="617.5" y1="240.5" x2="617.5" y2="207.5"/><line class="cls-2" x1="557.5" y1="192.5" x2="601.5" y2="192.5"/><g><circle class="cls-5" cx="693.5" cy="224.5" r="15"/><path d="M693.5,210c8,0,14.5,6.5,14.5,14.5s-6.5,14.5-14.5,14.5-14.5-6.5-14.5-14.5,6.5-14.5,14.5-14.5m0-1c-8.56,0-15.5,6.94-15.5,15.5s6.94,15.5,15.5,15.5,15.5-6.94,15.5-15.5-6.94-15.5-15.5-15.5h0Z"/></g><g><circle class="cls-5" cx="693.5" cy="183.5" r="15"/><path d="M693.5,169c8,0,14.5,6.5,14.5,14.5s-6.5,14.5-14.5,14.5-14.5-6.5-14.5-14.5,6.5-14.5,14.5-14.5m0-1c-8.56,0-15.5,6.94-15.5,15.5s6.94,15.5,15.5,15.5,15.5-6.94,15.5-15.5-6.94-15.5-15.5-15.5h0Z"/></g><g><circle class="cls-5" cx="693.5" cy="265.5" r="15"/><path d="M693.5,251c8,0,14.5,6.5,14.5,14.5s-6.5,14.5-14.5,14.5-14.5-6.5-14.5-14.5,6.5-14.5,14.5-14.5m0-1c-8.56,0-15.5,6.94-15.5,15.5s6.94,15.5,15.5,15.5,15.5-6.94,15.5-15.5-6.94-15.5-15.5-15.5h0Z"/></g><text class="cls-8" transform="translate(743.7 402.13)"><tspan class="cls-9" x="0" y="0">T</tspan><tspan class="cls-7" x="21.28" y="0">o</tspan><tspan x="42.8" y="0">p</tspan><tspan class="cls-3" x="66.04" y="0">o</tspan><tspan x="87.56" y="0">lo</tspan><tspan class="cls-6" x="121.32" y="0">g</tspan><tspan x="142.36" y="0">y file is missing. </tspan></text><rect class="cls-1" x="306" width="944" height="421"/><path d="M1209.5,450h-182.37c-28.7,0-57.4,0-86.1,0h-292.19c-31.98,0-63.96,0-95.95,0H286.11c-5.89,0-12.26,.69-18.13,0-.93-.11,.09,.52,.02,.32-.27-.8,0-2.15,0-2.98,0-5.47,0-10.94,0-16.42,0-21.73,0-43.46,0-65.2,0-30.6,0-61.21,0-91.81,0-32.81,0-65.63,0-98.44s0-56.73,0-85.09c0-17.25,0-34.5,0-51.75,0-1.79,.11-3.62,0-5.4-.08-1.22,.45-1.7-.49-1.23,.8-.4,2.85,0,3.71,0,8.81,0,17.63,0,26.44,0,16.16,0,32.33,0,48.49,0,22.2,0,44.39,0,66.59,0,26.91,0,53.82,0,80.73,0,30.45,0,60.91,0,91.36,0,32.39,0,64.77,0,97.16,0s66.27,0,99.41,0,65.13,0,97.7,0c30.68,0,61.36,0,92.04,0,27.47,0,54.94,0,82.42,0,22.95,0,45.89,0,68.84,0,17.1,0,34.2,0,51.31,0h29.82c1.75,0,3.9-.35,5.62,0,.84,.17-.31-.86-.14-.22,.25,.97,0,2.36,0,3.36v126.95c0,32.59,0,65.18,0,97.76,0,31.32,0,62.65,0,93.97,0,23.4,0,46.8,0,70.2,0,6.49,0,12.99,0,19.48,0,1.71-.04,3.42,0,5.13,0,.4,.1,1,0,1.39-.22,.81,.18,0,.1,.03-1.76,.73-.99,3.63,.8,2.89,3.03-1.26,2.1-5.43,2.1-8.17v-19.54c0-23.4,0-46.8,0-70.2,0-31.42,0-62.83,0-94.25V79.89c0-15.01,0-30.03,0-45.04,0-2.46,.55-5.29-2.64-5.85-1.5-.26-3.29,0-4.8,0-9.58,0-19.16,0-28.74,0-16.86,0-33.71,0-50.57,0-22.94,0-45.88,0-68.82,0-27.6,0-55.2,0-82.8,0-30.91,0-61.81,0-92.72,0-32.7,0-65.4,0-98.1,0-33.45,0-66.9,0-100.35,0s-65.38,0-98.07,0c-30.58,0-61.15,0-91.73,0-26.99,0-53.98,0-80.96,0-22.3,0-44.61,0-66.91,0-16.12,0-32.25,0-48.37,0-8.57,0-17.14,0-25.7,0-1.31,0-3.31-.34-4.49,.42-2.08,1.34-1.21,6.12-1.21,8.17,0,16.92,0,33.84,0,50.76,0,28.44,0,56.88,0,85.31,0,32.95,0,65.9,0,98.84,0,30.94,0,61.88,0,92.83,0,21.93,0,43.87,0,65.8,0,5.43,0,10.86,0,16.29,0,2.41-.47,5.05,2.67,5.57,5.18,.86,11.24,0,16.47,0h40.57c20.2,0,40.39,0,60.59,0,25.39,0,50.77,0,76.16,0,29.46,0,58.93,0,88.39,0h195.74c33.23,0,66.46,0,99.69,0s63.56,0,95.34,0h268.89c1.93,0,1.93-3,0-3Z"/><g><circle class="cls-5" cx="743.5" cy="265.5" r="15"/><path d="M743.5,251c8,0,14.5,6.5,14.5,14.5s-6.5,14.5-14.5,14.5-14.5-6.5-14.5-14.5,6.5-14.5,14.5-14.5m0-1c-8.56,0-15.5,6.94-15.5,15.5s6.94,15.5,15.5,15.5,15.5-6.94,15.5-15.5-6.94-15.5-15.5-15.5h0Z"/></g><g><circle class="cls-5" cx="789.5" cy="265.5" r="15"/><path d="M789.5,251c8,0,14.5,6.5,14.5,14.5s-6.5,14.5-14.5,14.5-14.5-6.5-14.5-14.5,6.5-14.5,14.5-14.5m0-1c-8.56,0-15.5,6.94-15.5,15.5s6.94,15.5,15.5,15.5,15.5-6.94,15.5-15.5-6.94-15.5-15.5-15.5h0Z"/></g><g><circle class="cls-5" cx="743.5" cy="223.5" r="15"/><path d="M743.5,209c8,0,14.5,6.5,14.5,14.5s-6.5,14.5-14.5,14.5-14.5-6.5-14.5-14.5,6.5-14.5,14.5-14.5m0-1c-8.56,0-15.5,6.94-15.5,15.5s6.94,15.5,15.5,15.5,15.5-6.94,15.5-15.5-6.94-15.5-15.5-15.5h0Z"/></g><g><circle class="cls-5" cx="743.5" cy="310.5" r="15"/><path d="M743.5,296c8,0,14.5,6.5,14.5,14.5s-6.5,14.5-14.5,14.5-14.5-6.5-14.5-14.5,6.5-14.5,14.5-14.5m0-1c-8.56,0-15.5,6.94-15.5,15.5s6.94,15.5,15.5,15.5,15.5-6.94,15.5-15.5-6.94-15.5-15.5-15.5h0Z"/></g><g><circle class="cls-5" cx="387.5" cy="224.5" r="15"/><path d="M387.5,210c8,0,14.5,6.5,14.5,14.5s-6.5,14.5-14.5,14.5-14.5-6.5-14.5-14.5,6.5-14.5,14.5-14.5m0-1c-8.56,0-15.5,6.94-15.5,15.5s6.94,15.5,15.5,15.5,15.5-6.94,15.5-15.5-6.94-15.5-15.5-15.5h0Z"/></g><g><circle class="cls-5" cx="387.5" cy="183.5" r="15"/><path d="M387.5,169c8,0,14.5,6.5,14.5,14.5s-6.5,14.5-14.5,14.5-14.5-6.5-14.5-14.5,6.5-14.5,14.5-14.5m0-1c-8.56,0-15.5,6.94-15.5,15.5s6.94,15.5,15.5,15.5,15.5-6.94,15.5-15.5-6.94-15.5-15.5-15.5h0Z"/></g><g><circle class="cls-5" cx="387.5" cy="265.5" r="15"/><path d="M387.5,251c8,0,14.5,6.5,14.5,14.5s-6.5,14.5-14.5,14.5-14.5-6.5-14.5-14.5,6.5-14.5,14.5-14.5m0-1c-8.56,0-15.5,6.94-15.5,15.5s6.94,15.5,15.5,15.5,15.5-6.94,15.5-15.5-6.94-15.5-15.5-15.5h0Z"/></g><rect class="cls-1" width="944" height="421"/><g><circle class="cls-5" cx="437.5" cy="265.5" r="15"/><path d="M437.5,251c8,0,14.5,6.5,14.5,14.5s-6.5,14.5-14.5,14.5-14.5-6.5-14.5-14.5,6.5-14.5,14.5-14.5m0-1c-8.56,0-15.5,6.94-15.5,15.5s6.94,15.5,15.5,15.5,15.5-6.94,15.5-15.5-6.94-15.5-15.5-15.5h0Z"/></g><g><circle class="cls-5" cx="483.5" cy="265.5" r="15"/><path d="M483.5,251c8,0,14.5,6.5,14.5,14.5s-6.5,14.5-14.5,14.5-14.5-6.5-14.5-14.5,6.5-14.5,14.5-14.5m0-1c-8.56,0-15.5,6.94-15.5,15.5s6.94,15.5,15.5,15.5,15.5-6.94,15.5-15.5-6.94-15.5-15.5-15.5h0Z"/></g><g><circle class="cls-5" cx="437.5" cy="223.5" r="15"/><path d="M437.5,209c8,0,14.5,6.5,14.5,14.5s-6.5,14.5-14.5,14.5-14.5-6.5-14.5-14.5,6.5-14.5,14.5-14.5m0-1c-8.56,0-15.5,6.94-15.5,15.5s6.94,15.5,15.5,15.5,15.5-6.94,15.5-15.5-6.94-15.5-15.5-15.5h0Z"/></g><g><circle class="cls-5" cx="437.5" cy="310.5" r="15"/><path d="M437.5,296c8,0,14.5,6.5,14.5,14.5s-6.5,14.5-14.5,14.5-14.5-6.5-14.5-14.5,6.5-14.5,14.5-14.5m0-1c-8.56,0-15.5,6.94-15.5,15.5s6.94,15.5,15.5,15.5,15.5-6.94,15.5-15.5-6.94-15.5-15.5-15.5h0Z"/></g></g></svg>